<?xml version="1.0" encoding="iso-8859-1"?>
<!-- Uploaded to: SVG Repo, www.svgrepo.com, Generator: SVG Repo Mixer Tools -->
<svg fill="#000000" height="800px" width="800px" version="1.1" id="Layer_1" xmlns="http://www.w3.org/2000/svg" xmlns:xlink="http://www.w3.org/1999/xlink" 
	 viewBox="0 0 485.006 485.006" xml:space="preserve">
<g>
	<path d="M396.19,282.437c-3.525,0-7.026,0.218-10.494,0.627c-2.69-45.392-15.125-89.934-36.377-129.848
		c-22.157-41.616-53.806-78.189-91.817-106.21V0.003h-30v47.002c-38.011,28.021-69.659,64.594-91.817,106.21
		c-21.251,39.914-33.687,84.457-36.377,129.848c-3.469-0.409-6.969-0.627-10.494-0.627C39.842,282.437,0,322.279,0,371.252
		c0,62.723,51.028,113.751,113.751,113.751s113.751-51.028,113.751-113.751c0-48.973-39.843-88.815-88.816-88.815
		c-3.123,0-6.228,0.165-9.307,0.486c5.462-82.8,46.71-159.502,113.124-209.69c66.414,50.187,107.662,126.889,113.124,209.69
		c-3.08-0.321-6.184-0.486-9.307-0.486c-48.973,0-88.816,39.842-88.816,88.815c0,62.723,51.029,113.751,113.751,113.751
		s113.751-51.028,113.751-113.751C485.006,322.279,445.164,282.437,396.19,282.437z M197.502,371.252
		c0,46.181-37.571,83.751-83.751,83.751S30,417.433,30,371.252c0-32.431,26.384-58.815,58.815-58.815
		c6.823,0,13.508,1.158,19.868,3.44l5.067,1.819l5.067-1.819c6.36-2.283,13.045-3.44,19.868-3.44
		C171.118,312.437,197.502,338.821,197.502,371.252z M371.255,455.003c-46.181,0-83.751-37.57-83.751-83.751
		c0-32.431,26.385-58.815,58.816-58.815c6.823,0,13.508,1.158,19.868,3.44l5.067,1.819l5.067-1.819
		c6.36-2.283,13.045-3.44,19.868-3.44c32.431,0,58.815,26.384,58.815,58.815C455.006,417.433,417.436,455.003,371.255,455.003z"/>
</g>
</svg>