<svg xmlns="http://www.w3.org/2000/svg" data-name="Layer 1" viewBox="0 0 512 512" id="sapodilla"><path d="M511.84082,236.11963c-.94141-38.32617-12.45215-69.84375-34.21094-93.67627C434.57129,95.28369,369.40625,96.4126,344.86914,96.83447c-18.58936.32135-55.39893.9621-89.52612,18.4892-24.28394-12.17657-49.82642-16.05792-69.66333-17.27856A100.41586,100.41586,0,0,0,187.333,49.09424a7.49678,7.49678,0,0,0-8.5625-5.82275l-35,5.83008a7.49962,7.49962,0,0,0-5.13574,11.36523,46.01058,46.01058,0,0,1,6.88672,27.4624,44.24,44.24,0,0,1-1.93164,9.9317c-30.37158,1.395-76.81128,8.39923-109.86719,44.58051-51.85059,56.75781-30.2998,141.67383-23.21875,169.57812l.17578.69336c10.30469,40.65479,31.76758,84.21729,57.41309,116.52979C94.99,463.13281,124.85547,483.07544,155.5,487.89386V494.5a7.5,7.5,0,0,0,15,0v-5.4538c2-.00867,4.00391-.07556,6.00586-.21368,31.188-2.1496,59.48877-19.4975,84.2373-51.57812,29.46118,34.02313,62.15137,51.79492,95.34668,51.79492q3.20508,0,6.41992-.22119c20.02246-1.38184,39.11426-9.18506,56.74219-23.19238,14.77148-11.7373,28.582-27.88525,41.04785-47.99658,27.21875-43.9126,39.17969-91.57617,42.19727-105.13867l.168-.75732C506.38184,295.04688,512.60254,267.10156,511.84082,236.11963Zm-337.96-176.82715a85.70992,85.70992,0,0,1-3.731,38.22479c-3.0127-.02991-5.75366-.02325-8.17139-.01727-.885.0025-1.81348.00525-2.77661.0097a59.00944,59.00944,0,0,0,1.27661-8.44037A59.8669,59.8669,0,0,0,156.25879,62.228Zm1.59375,414.5752c-41.40039,2.85693-74.84961-27.76318-95.63281-53.9502-24.02832-30.27539-44.958-72.76611-54.62207-110.89111l-.17676-.69678c-6.58984-25.96582-26.64355-104.98291,19.75391-155.771,30.81787-33.731,76.15918-39.01032,104.04-39.87793l.0293.00146c.01807,0,.03589-.00378.0542-.00391,5.00732-.15442,9.45215-.16779,13.14209-.17822,16.10791-.04687,47.554-.12067,77.71582,12.22516A122.38658,122.38658,0,0,0,219.707,142.457C167.9375,199.43994,189.43652,284.17188,196.502,312.01563l.17773.69922c9.88989,39.01239,30.05566,80.69379,54.32813,112.54877C228.44653,455.61438,203.05762,471.96667,175.47461,473.86768ZM488.02344,308.48389l-.16895.75879c-12.18457,54.76318-54.27734,159.64551-126.37793,164.62061-41.01294,2.83057-74.30176-27.26544-95.12134-53.30945-.02637-.03442-.05493-.06738-.08179-.10144-.1416-.17755-.28906-.35681-.42969-.53394-24.02832-30.27393-44.959-72.76416-54.625-110.89014l-.17773-.70215c-6.57422-25.91162-26.583-104.76416,19.76758-155.78223,35.75391-39.35352,90.81055-40.30518,114.32129-40.71143,2.50684-.04346,5.47266-.09473,8.81738-.09473,26.917,0,78.36719,3.3208,112.60449,40.81934C511.7207,202.03076,495.11523,276.62891,488.02344,308.48389ZM349,134c-9.92383,0-16.45312,11.70508-21.16992,37.95215C324.07031,192.86963,322,220.5874,322,250s2.07031,57.13037,5.83008,78.04785C332.54688,354.29492,339.07617,366,349,366s16.45313-11.70508,21.16992-37.95215C373.92969,307.13037,376,279.4126,376,250s-2.07031-57.13037-5.83008-78.04785C365.45313,145.70508,358.92383,134,349,134Zm0,214.73389c-4.90527-10.019-12-43.6084-12-98.73389s7.09473-88.71484,12-98.73389c4.90527,10.019,12,43.6084,12,98.73389S353.90527,338.71484,349,348.73389Z"></path></svg>